<svg xmlns="http://www.w3.org/2000/svg" viewBox="0 0 1600 1000" preserveAspectRatio="xMidYMid slice"><style>.o{stroke:#4A3426;stroke-linejoin:round;stroke-linecap:round}</style><defs><linearGradient id="siteSkyR1" x1="0" y1="0" x2="0" y2="1"><stop offset="0" stop-color="#6EC6FF"/><stop offset="1" stop-color="#D4F1FF"/></linearGradient></defs><rect x="0" y="0" width="1600" height="1000" fill="url(#siteSkyR1)"/><g><rect x="60" y="310" width="120" height="150" fill="#B9C8F0" class="o" stroke-width="5"/><rect x="70" y="322" width="14" height="16" rx="2" fill="#E9F4FF"/><rect x="100" y="322" width="14" height="16" rx="2" fill="#E9F4FF"/><rect x="130" y="322" width="14" height="16" rx="2" fill="#E9F4FF"/><rect x="160" y="322" width="14" height="16" rx="2" fill="#E9F4FF"/><rect x="70" y="356" width="14" height="16" rx="2" fill="#E9F4FF"/><rect x="100" y="356" width="14" height="16" rx="2" fill="#E9F4FF"/><rect x="130" y="356" width="14" height="16" rx="2" fill="#E9F4FF"/><rect x="160" y="356" width="14" height="16" rx="2" fill="#E9F4FF"/><rect x="70" y="390" width="14" height="16" rx="2" fill="#E9F4FF"/><rect x="100" y="390" width="14" height="16" rx="2" fill="#E9F4FF"/><rect x="130" y="390" width="14" height="16" rx="2" fill="#E9F4FF"/><rect x="160" y="390" width="14" height="16" rx="2" fill="#E9F4FF"/><rect x="70" y="424" width="14" height="16" rx="2" fill="#E9F4FF"/><rect x="100" y="424" width="14" height="16" rx="2" fill="#E9F4FF"/><rect x="130" y="424" width="14" height="16" rx="2" fill="#E9F4FF"/><rect x="160" y="424" width="14" height="16" rx="2" fill="#E9F4FF"/></g><g><rect x="190" y="350" width="90" height="110" fill="#C9B9F0" class="o" stroke-width="5"/><rect x="200" y="362" width="14" height="16" rx="2" fill="#E9F4FF"/><rect x="230" y="362" width="14" height="16" rx="2" fill="#E9F4FF"/><rect x="260" y="362" width="14" height="16" rx="2" fill="#E9F4FF"/><rect x="200" y="396" width="14" height="16" rx="2" fill="#E9F4FF"/><rect x="230" y="396" width="14" height="16" rx="2" fill="#E9F4FF"/><rect x="260" y="396" width="14" height="16" rx="2" fill="#E9F4FF"/><rect x="200" y="430" width="14" height="16" rx="2" fill="#E9F4FF"/><rect x="230" y="430" width="14" height="16" rx="2" fill="#E9F4FF"/><rect x="260" y="430" width="14" height="16" rx="2" fill="#E9F4FF"/></g><g><rect x="600" y="290" width="110" height="170" fill="#B9D8F0" class="o" stroke-width="5"/><rect x="610" y="302" width="14" height="16" rx="2" fill="#E9F4FF"/><rect x="640" y="302" width="14" height="16" rx="2" fill="#E9F4FF"/><rect x="670" y="302" width="14" height="16" rx="2" fill="#E9F4FF"/><rect x="610" y="336" width="14" height="16" rx="2" fill="#E9F4FF"/><rect x="640" y="336" width="14" height="16" rx="2" fill="#E9F4FF"/><rect x="670" y="336" width="14" height="16" rx="2" fill="#E9F4FF"/><rect x="610" y="370" width="14" height="16" rx="2" fill="#E9F4FF"/><rect x="640" y="370" width="14" height="16" rx="2" fill="#E9F4FF"/><rect x="670" y="370" width="14" height="16" rx="2" fill="#E9F4FF"/><rect x="610" y="404" width="14" height="16" rx="2" fill="#E9F4FF"/><rect x="640" y="404" width="14" height="16" rx="2" fill="#E9F4FF"/><rect x="670" y="404" width="14" height="16" rx="2" fill="#E9F4FF"/><rect x="610" y="438" width="14" height="16" rx="2" fill="#E9F4FF"/><rect x="640" y="438" width="14" height="16" rx="2" fill="#E9F4FF"/><rect x="670" y="438" width="14" height="16" rx="2" fill="#E9F4FF"/></g><g><rect x="720" y="340" width="90" height="120" fill="#C9B9F0" class="o" stroke-width="5"/><rect x="730" y="352" width="14" height="16" rx="2" fill="#E9F4FF"/><rect x="760" y="352" width="14" height="16" rx="2" fill="#E9F4FF"/><rect x="790" y="352" width="14" height="16" rx="2" fill="#E9F4FF"/><rect x="730" y="386" width="14" height="16" rx="2" fill="#E9F4FF"/><rect x="760" y="386" width="14" height="16" rx="2" fill="#E9F4FF"/><rect x="790" y="386" width="14" height="16" rx="2" fill="#E9F4FF"/><rect x="730" y="420" width="14" height="16" rx="2" fill="#E9F4FF"/><rect x="760" y="420" width="14" height="16" rx="2" fill="#E9F4FF"/><rect x="790" y="420" width="14" height="16" rx="2" fill="#E9F4FF"/></g><g><rect x="1460" y="320" width="120" height="140" fill="#B9C8F0" class="o" stroke-width="5"/><rect x="1470" y="332" width="14" height="16" rx="2" fill="#E9F4FF"/><rect x="1500" y="332" width="14" height="16" rx="2" fill="#E9F4FF"/><rect x="1530" y="332" width="14" height="16" rx="2" fill="#E9F4FF"/><rect x="1560" y="332" width="14" height="16" rx="2" fill="#E9F4FF"/><rect x="1470" y="366" width="14" height="16" rx="2" fill="#E9F4FF"/><rect x="1500" y="366" width="14" height="16" rx="2" fill="#E9F4FF"/><rect x="1530" y="366" width="14" height="16" rx="2" fill="#E9F4FF"/><rect x="1560" y="366" width="14" height="16" rx="2" fill="#E9F4FF"/><rect x="1470" y="400" width="14" height="16" rx="2" fill="#E9F4FF"/><rect x="1500" y="400" width="14" height="16" rx="2" fill="#E9F4FF"/><rect x="1530" y="400" width="14" height="16" rx="2" fill="#E9F4FF"/><rect x="1560" y="400" width="14" height="16" rx="2" fill="#E9F4FF"/><rect x="1470" y="434" width="14" height="16" rx="2" fill="#E9F4FF"/><rect x="1500" y="434" width="14" height="16" rx="2" fill="#E9F4FF"/><rect x="1530" y="434" width="14" height="16" rx="2" fill="#E9F4FF"/><rect x="1560" y="434" width="14" height="16" rx="2" fill="#E9F4FF"/></g><path d="M-20 456 L1620 456 L1620 1020 L-20 1020 Z" fill="#CFE6A6" class="o" stroke-width="6"/><g transform="translate(1170 500)"><rect x="-7" y="-220" width="14" height="220" fill="#FF9F43" class="o" stroke-width="4"/><rect x="73" y="-220" width="14" height="220" fill="#FF9F43" class="o" stroke-width="4"/><rect x="153" y="-220" width="14" height="220" fill="#FF9F43" class="o" stroke-width="4"/><rect x="233" y="-220" width="14" height="220" fill="#FF9F43" class="o" stroke-width="4"/><rect x="-14" y="-12" width="268" height="12" fill="#FF9F43" class="o" stroke-width="4"/><rect x="-14" y="-82" width="268" height="12" fill="#FF9F43" class="o" stroke-width="4"/><rect x="-14" y="-152" width="268" height="12" fill="#FF9F43" class="o" stroke-width="4"/><rect x="-14" y="-222" width="268" height="12" fill="#FF9F43" class="o" stroke-width="4"/><path d="M0 -70 L80 -140 M80 -70 L160 -140 M160 -140 L240 -210" stroke="#4A3426" stroke-width="6" stroke-linecap="round"/></g><g><rect x="-20" y="448" width="1640" height="70" fill="#F2E3C8" class="o" stroke-width="6"/><rect x="-20" y="448" width="1640" height="18" fill="#FFD34D"/><path d="M-20 448 L10 448 L-10 466 L-40 466 Z" fill="#4A3426"/><path d="M30 448 L60 448 L40 466 L10 466 Z" fill="#4A3426"/><path d="M80 448 L110 448 L90 466 L60 466 Z" fill="#4A3426"/><path d="M130 448 L160 448 L140 466 L110 466 Z" fill="#4A3426"/><path d="M180 448 L210 448 L190 466 L160 466 Z" fill="#4A3426"/><path d="M230 448 L260 448 L240 466 L210 466 Z" fill="#4A3426"/><path d="M280 448 L310 448 L290 466 L260 466 Z" fill="#4A3426"/><path d="M330 448 L360 448 L340 466 L310 466 Z" fill="#4A3426"/><path d="M380 448 L410 448 L390 466 L360 466 Z" fill="#4A3426"/><path d="M430 448 L460 448 L440 466 L410 466 Z" fill="#4A3426"/><path d="M480 448 L510 448 L490 466 L460 466 Z" fill="#4A3426"/><path d="M530 448 L560 448 L540 466 L510 466 Z" fill="#4A3426"/><path d="M580 448 L610 448 L590 466 L560 466 Z" fill="#4A3426"/><path d="M630 448 L660 448 L640 466 L610 466 Z" fill="#4A3426"/><path d="M680 448 L710 448 L690 466 L660 466 Z" fill="#4A3426"/><path d="M730 448 L760 448 L740 466 L710 466 Z" fill="#4A3426"/><path d="M780 448 L810 448 L790 466 L760 466 Z" fill="#4A3426"/><path d="M830 448 L860 448 L840 466 L810 466 Z" fill="#4A3426"/><path d="M880 448 L910 448 L890 466 L860 466 Z" fill="#4A3426"/><path d="M930 448 L960 448 L940 466 L910 466 Z" fill="#4A3426"/><path d="M980 448 L1010 448 L990 466 L960 466 Z" fill="#4A3426"/><path d="M1030 448 L1060 448 L1040 466 L1010 466 Z" fill="#4A3426"/><path d="M1080 448 L1110 448 L1090 466 L1060 466 Z" fill="#4A3426"/><path d="M1130 448 L1160 448 L1140 466 L1110 466 Z" fill="#4A3426"/><path d="M1180 448 L1210 448 L1190 466 L1160 466 Z" fill="#4A3426"/><path d="M1230 448 L1260 448 L1240 466 L1210 466 Z" fill="#4A3426"/><path d="M1280 448 L1310 448 L1290 466 L1260 466 Z" fill="#4A3426"/><path d="M1330 448 L1360 448 L1340 466 L1310 466 Z" fill="#4A3426"/><path d="M1380 448 L1410 448 L1390 466 L1360 466 Z" fill="#4A3426"/><path d="M1430 448 L1460 448 L1440 466 L1410 466 Z" fill="#4A3426"/><path d="M1480 448 L1510 448 L1490 466 L1460 466 Z" fill="#4A3426"/><path d="M1530 448 L1560 448 L1540 466 L1510 466 Z" fill="#4A3426"/><path d="M1580 448 L1610 448 L1590 466 L1560 466 Z" fill="#4A3426"/><rect x="114" y="466" width="12" height="52" fill="#D9C4A0"/><rect x="414" y="466" width="12" height="52" fill="#D9C4A0"/><rect x="714" y="466" width="12" height="52" fill="#D9C4A0"/><rect x="1014" y="466" width="12" height="52" fill="#D9C4A0"/><rect x="1314" y="466" width="12" height="52" fill="#D9C4A0"/><rect x="-20" y="448" width="1640" height="70" fill="none" class="o" stroke-width="6"/></g><path d="M-20 516 C300 504 600 512 900 518 C1150 524 1400 506 1620 514 L1620 1020 L-20 1020 Z" fill="#E2B07A" class="o" stroke-width="6"/><ellipse cx="520" cy="560" rx="18" ry="7" fill="#C99460"/><ellipse cx="980" cy="580" rx="18" ry="7" fill="#C99460"/><ellipse cx="1460" cy="720" rx="18" ry="7" fill="#C99460"/><ellipse cx="130" cy="760" rx="18" ry="7" fill="#C99460"/><ellipse cx="1020" cy="760" rx="18" ry="7" fill="#C99460"/><path d="M720 516 C716 600 664 660 650 740 C638 812 630 900 624 1020 L900 1020 C896 900 880 812 868 740 C852 660 832 600 836 516 Z" fill="#7A8794" class="o" stroke-width="6"/><rect x="772" y="548" width="12" height="28" rx="4" fill="#FFD34D"/><rect x="767" y="600" width="12" height="28" rx="4" fill="#FFD34D"/><rect x="762" y="656" width="12" height="28" rx="4" fill="#FFD34D"/><rect x="757" y="716" width="12" height="28" rx="4" fill="#FFD34D"/><rect x="752" y="784" width="12" height="28" rx="4" fill="#FFD34D"/><rect x="747" y="856" width="12" height="28" rx="4" fill="#FFD34D"/><rect x="742" y="936" width="12" height="28" rx="4" fill="#FFD34D"/><g><rect x="140" y="444" width="230" height="96" rx="8" fill="#5BB8F5" class="o" stroke-width="6"/><rect x="160" y="464" width="60" height="36" rx="4" fill="#BFE9FF" class="o" stroke-width="4"/><rect x="240" y="464" width="60" height="36" rx="4" fill="#BFE9FF" class="o" stroke-width="4"/><rect x="318" y="464" width="36" height="76" rx="4" fill="#3E7CD6" class="o" stroke-width="4"/><rect x="130" y="436" width="250" height="14" rx="6" fill="#E9F4FF" class="o" stroke-width="4"/></g><g><circle cx="470" cy="540" r="18" fill="#9AA8B5" class="o" stroke-width="4"/><circle cx="506" cy="540" r="18" fill="#9AA8B5" class="o" stroke-width="4"/><circle cx="488" cy="512" r="18" fill="#9AA8B5" class="o" stroke-width="4"/><circle cx="470" cy="540" r="8" fill="#5A6A7A"/><circle cx="506" cy="540" r="8" fill="#5A6A7A"/><circle cx="488" cy="512" r="8" fill="#5A6A7A"/></g><path d="M930 556 C950 520 1000 516 1030 556 Z" fill="#F2C97A" class="o" stroke-width="5"/><ellipse cx="330" cy="636" rx="160" ry="42" fill="#9C6B43" class="o" stroke-width="6"/><ellipse cx="330" cy="644" rx="110" ry="24" fill="#8B5A2B"/><circle cx="260" cy="630" r="8" fill="#B98559" class="o" stroke-width="3"/><circle cx="400" cy="640" r="6" fill="#B98559" class="o" stroke-width="3"/><path d="M1078 600 L1396 600 L1424 666 L1052 666 Z" fill="#D3DCE5" class="o" stroke-width="6"/><path d="M1140 600 L1124 666 M1240 600 L1238 666 M1340 600 L1352 666 M1066 632 L1410 632" stroke="#B7C2CC" stroke-width="4"/><path d="M1110 600 L1110 584" stroke="#4A3426" stroke-width="5" stroke-linecap="round"/><path d="M1180 600 L1180 584" stroke="#4A3426" stroke-width="5" stroke-linecap="round"/><path d="M1300 600 L1300 584" stroke="#4A3426" stroke-width="5" stroke-linecap="round"/><path d="M1370 600 L1370 584" stroke="#4A3426" stroke-width="5" stroke-linecap="round"/></svg>